<?xml version="1.0" encoding="utf-8"?>
<!-- Generator: Adobe Illustrator 24.0.0, SVG Export Plug-In . SVG Version: 6.00 Build 0)  -->
<svg version="1.1" id="レイヤー_1" xmlns="http://www.w3.org/2000/svg" xmlns:xlink="http://www.w3.org/1999/xlink" x="0px"
	 y="0px" viewBox="0 0 60 60" style="enable-background:new 0 0 60 60;" xml:space="preserve">
<g>
	<g id="icon-instagram">
		<g id="グループ_428" transform="translate(1.039)">
			<path id="パス_966" d="M28.9,14.7c-8.4,0-15.2,6.8-15.2,15.2c-0.1,8.3,6.6,15.1,14.9,15.2c0.1,0,0.2,0,0.3,0h0.8
				c8.1-0.2,14.6-6.9,14.4-15c0-0.1,0-0.1,0-0.2c0.1-8.3-6.6-15.1-14.9-15.2C29.1,14.7,29,14.7,28.9,14.7z M28.9,40
				c-5.8,0.1-10.5-4.6-10.6-10.3c0-0.1,0-0.2,0-0.2c-0.1-5.8,4.6-10.5,10.3-10.6c0.1,0,0.2,0,0.2,0c5.8-0.1,10.5,4.6,10.6,10.3
				c0,0.1,0,0.2,0,0.2c0.1,5.8-4.6,10.5-10.3,10.6C29,40,28.9,40,28.9,40z"/>
			<path id="パス_967" d="M44.9,10.3c-1.9,0-3.6,1.5-3.6,3.4c0,0.1,0,0.1,0,0.2c0,1.9,1.5,3.6,3.4,3.6c0.1,0,0.1,0,0.2,0
				c2,0,3.6-1.6,3.6-3.6c0-1.9-1.5-3.6-3.4-3.6C45,10.3,44.9,10.3,44.9,10.3z"/>
			<path id="パス_968" d="M41.8,0h-25C7.5,0,0,7.5,0,16.7c0,0,0,0,0,0.1v25.8c0,9.2,7.5,16.7,16.7,16.8c0,0,0,0,0.1,0h24.7
				c9.3,0,16.9-7.4,17-16.8l0,0V16.8C58.4,7.6,50.9,0.2,41.8,0z M53.2,42.5c0,5.9-5.8,11.7-11.7,11.7h-25c-5.9,0-11.6-5.7-11.6-11.7
				V16.8c0-5.9,5.6-11.5,11.5-11.5h24.7c5.9,0,11.8,5.6,12,11.5L53.2,42.5z"/>
		</g>
	</g>
</g>
</svg>
