<svg xmlns="http://www.w3.org/2000/svg" xmlns:xlink="http://www.w3.org/1999/xlink" width="42" height="42" viewBox="0 0 42 42">
  <defs>
    <clipPath id="clip-logo-kamemannen-mark">
      <rect width="42" height="42"/>
    </clipPath>
  </defs>
  <g id="logo-kamemannen-mark" clip-path="url(#clip-logo-kamemannen-mark)">
    <g id="グループ_189" data-name="グループ 189" transform="translate(-2383.523 -1737.225)">
      <path id="パス_304" data-name="パス 304" d="M2404.522,1778.224a20,20,0,1,1,20-20A20.023,20.023,0,0,1,2404.522,1778.224Zm0-37.319a17.319,17.319,0,1,0,17.32,17.32A17.339,17.339,0,0,0,2404.522,1740.9Z"/>
      <path id="パス_305" data-name="パス 305" d="M2415.432,1763.165a3.129,3.129,0,0,0-.365-.17v-9.608a3.266,3.266,0,0,0,.365-.169,1.968,1.968,0,1,0-1.858-3.352,3.1,3.1,0,0,0-.313.2l-6.82-4.6a3.009,3.009,0,0,0,.035-.452,1.968,1.968,0,1,0-3.831,0,2.941,2.941,0,0,0,.035.454l-6.814,4.6a3.234,3.234,0,0,0-.312-.2,1.968,1.968,0,1,0-1.857,3.35,3.051,3.051,0,0,0,.361.169V1763a3.07,3.07,0,0,0-.361.169,1.968,1.968,0,1,0,1.857,3.351,2.99,2.99,0,0,0,.314-.2l6.813,4.6a3.086,3.086,0,0,0-.035.456,1.968,1.968,0,1,0,3.831,0,3.038,3.038,0,0,0-.035-.454l6.817-4.6a3.148,3.148,0,0,0,.315.2,1.968,1.968,0,1,0,1.858-3.351Zm-18.694.5v-10.953h0l7.822-5.282,7.824,5.283v10.953l-7.824,5.283Z" transform="translate(-0.04 -0.023)"/>
    </g>
  </g>
</svg>
