<svg xmlns="http://www.w3.org/2000/svg" xmlns:xlink="http://www.w3.org/1999/xlink" width="223" height="54" viewBox="0 0 223 54">
  <defs>
    <clipPath id="clip-logo-kamemannen-since1917-vertical">
      <rect width="223" height="54"/>
    </clipPath>
  </defs>
  <g id="logo-kamemannen-since1917-vertical" clip-path="url(#clip-logo-kamemannen-since1917-vertical)">
    <g id="グループ_285" data-name="グループ 285" transform="translate(-3552.396 -247.58)">
      <g id="グループ_280" data-name="グループ 280">
        <path id="パス_330" data-name="パス 330" d="M3570.714,283.216a17.318,17.318,0,1,1,17.317-17.318A17.337,17.337,0,0,1,3570.714,283.216Zm0-32.314a15,15,0,1,0,15,15A15.013,15.013,0,0,0,3570.714,250.9Z"/>
        <path id="パス_331" data-name="パス 331" d="M3580.125,270.157a2.639,2.639,0,0,0-.316-.147v-8.319a2.649,2.649,0,0,0,.316-.147,1.7,1.7,0,1,0-1.609-2.9,2.49,2.49,0,0,0-.271.175l-5.905-3.988a2.652,2.652,0,0,0,.03-.391,1.7,1.7,0,1,0-3.317,0,2.646,2.646,0,0,0,.03.393l-5.9,3.985a2.724,2.724,0,0,0-.27-.175,1.7,1.7,0,1,0-1.609,2.9,2.694,2.694,0,0,0,.314.146v8.321a2.7,2.7,0,0,0-.314.146,1.7,1.7,0,1,0,1.609,2.9,2.715,2.715,0,0,0,.272-.175l5.9,3.983a2.683,2.683,0,0,0-.03.395,1.7,1.7,0,1,0,3.317,0,2.689,2.689,0,0,0-.03-.393l5.9-3.986a2.648,2.648,0,0,0,.273.176,1.7,1.7,0,1,0,1.609-2.9Zm-16.187.434v-9.482h0l6.774-4.574,6.775,4.574v9.484l-6.775,4.575Z"/>
      </g>
      <g id="グループ_284" data-name="グループ 284">
        <g id="グループ_282" data-name="グループ 282">
          <path id="パス_332" data-name="パス 332" d="M3681.009,263.913l-4.965-12.7h-3.351l.009,28.757h2.6v-25.1s3.042,8.537,3.39,9.422a2.332,2.332,0,0,0,4.587,0c.416-1.066,3.419-9.425,3.419-9.425v25.107h2.616V251.208h-3.349Z"/>
          <g id="グループ_281" data-name="グループ 281">
            <path id="パス_333" data-name="パス 333" d="M3609.147,267.058c-.691-1-1.06-1.4-1.06-2.078a3.493,3.493,0,0,1,1.057-2.106c.913-1.158,9.07-11.67,9.07-11.67h-3.271s-6.944,8.864-7.859,10.044c-1.095,1.412-1.6,2.292-1.6,3.74s.617,2.329,1.593,3.747c1.056,1.533,8.118,11.23,8.118,11.23h3.393Z"/>
            <path id="パス_334" data-name="パス 334" d="M3601.883,279.966h2.631V251.212h-2.623Z"/>
          </g>
          <path id="パス_335" data-name="パス 335" d="M3647.186,259.091a3.9,3.9,0,0,0-3.613,1.968,3.949,3.949,0,0,0-3.632-1.968c-2.446,0-4.909,1.462-4.909,5.1l.014,15.78h2.559L3637.6,264.5c0-1.143.308-3.172,2.369-3.174,2.03,0,2.334,2.031,2.334,3.174l.006,15.475h2.547l-.013-15.475c0-1.143.3-3.168,2.333-3.169,2.062,0,2.371,2.026,2.371,3.169l.008,15.476,2.556,0-.014-15.832A4.646,4.646,0,0,0,3647.186,259.091Z"/>
          <path id="パス_336" data-name="パス 336" d="M3767.947,259.091c-3.683,0-5.481,1.846-5.481,5.644l.006,15.232,2.576,0V264.484c0-1.907.975-3.155,2.916-3.155s2.833,1.248,2.833,3.155v15.483l2.6,0-.021-15.311C3773.376,260.937,3771.63,259.091,3767.947,259.091Z"/>
          <path id="パス_337" data-name="パス 337" d="M3714.889,259.091c-3.683,0-5.481,1.846-5.481,5.644l.005,15.232,2.577,0V264.484c0-1.907.974-3.155,2.915-3.155s2.834,1.248,2.834,3.155v15.483l2.6,0-.02-15.311C3720.318,260.937,3718.572,259.091,3714.889,259.091Z"/>
          <path id="パス_338" data-name="パス 338" d="M3738.862,277.414c-2-5.472-10.158-26.2-10.158-26.2h-3.31v28.756h2.556V254.844s6.231,16.907,8.3,22.482c.8,2.171,1.582,2.95,2.961,2.95a1.993,1.993,0,0,0,2.2-2.2V251.2h-2.544Z"/>
          <path id="パス_339" data-name="パス 339" d="M3630.465,264.659c0-3.779-2.015-5.568-5.5-5.568s-5.369,1.789-5.369,5.643l0,.9-.013.017h2.525v-1.173c0-1.907,1.067-3.155,2.87-3.155a2.855,2.855,0,0,1,2.937,3.155v3.454l-2.157.01c-4.155,0-6.229,2.489-6.229,6.16,0,4.3,1.886,6.178,5.511,6.178,2.91,0,5.463-1.207,5.463-5.238Zm-8.382,9.712c0-.22,0-.442,0-.482a3.378,3.378,0,0,1,3.495-3.707h2.34v4.213c0,2.554-.889,3.646-2.873,3.646S3622.083,276.778,3622.083,274.371Z"/>
          <path id="パス_340" data-name="パス 340" d="M3757.409,264.645c0-3.7-1.727-5.554-5.438-5.554s-5.458,1.846-5.458,5.577l-.008,4.982v4.983c0,4.067,2.284,5.637,5.457,5.637s5.442-1.365,5.442-5.539l0-1.133h-2.6v1.355c0,2.215-1.293,3.077-2.846,3.077a2.757,2.757,0,0,1-2.88-3.1v-4.756h8.328Zm-8.346,3.3v-3.455c0-2.034,1.029-3.154,2.905-3.154s2.845,1.12,2.845,3.154v3.455Z"/>
          <path id="パス_341" data-name="パス 341" d="M3667.524,264.645c0-3.7-1.727-5.554-5.439-5.554s-5.457,1.846-5.457,5.577l-.008,4.982v4.983c0,4.067,2.283,5.637,5.457,5.637s5.442-1.365,5.442-5.539l0-1.133h-2.6v1.355c0,2.215-1.293,3.077-2.846,3.077a2.757,2.757,0,0,1-2.88-3.1v-4.756h8.328Zm-8.346,3.3v-3.455c0-2.034,1.029-3.154,2.905-3.154s2.844,1.12,2.844,3.154v3.455Z"/>
          <path id="パス_342" data-name="パス 342" d="M3704.886,264.659c0-3.779-2.016-5.568-5.5-5.568s-5.408,1.789-5.408,5.643l0,.9-.013.017h2.565l0-1.173c0-1.907,1.067-3.155,2.869-3.155a2.855,2.855,0,0,1,2.937,3.155v3.454l-2.157.01c-4.155,0-6.268,2.489-6.268,6.16,0,4.3,1.886,6.178,5.511,6.178,2.91,0,5.463-1.207,5.463-5.238Zm-8.383,9.712c0-.22,0-.442,0-.482a3.378,3.378,0,0,1,3.5-3.707h2.341v4.213c0,2.554-.929,3.646-2.913,3.646S3696.5,276.778,3696.5,274.371Z"/>
        </g>
        <g id="グループ_283" data-name="グループ 283">
          <path id="パス_343" data-name="パス 343" d="M3644.23,297.66a4.22,4.22,0,0,0,2.339.747,1.6,1.6,0,0,0,1.675-1.754c0-.87-.458-1.252-1.438-1.843l-1.027-.625a3.45,3.45,0,0,1-1.8-3.182,3.223,3.223,0,0,1,3.477-3.3,6.607,6.607,0,0,1,2.307.435l-.095,1.859a4.864,4.864,0,0,0-2.07-.521,1.364,1.364,0,0,0-1.533,1.425c0,.9.553,1.251,1.17,1.634l1.185.73a3.327,3.327,0,0,1,1.912,3.266,3.388,3.388,0,0,1-3.7,3.651,4.668,4.668,0,0,1-2.512-.539Z"/>
          <path id="パス_344" data-name="パス 344" d="M3654.72,287.875h2.023v12.131h-2.023Z"/>
          <path id="パス_345" data-name="パス 345" d="M3661.513,287.875h2.4l3.665,9.524h.033v-9.524h1.833v12.131h-2.418l-3.65-9.454h-.032v9.454h-1.833Z"/>
          <path id="パス_346" data-name="パス 346" d="M3680.927,299.746a5.6,5.6,0,0,1-2.386.435c-3.35,0-5.072-2.7-5.072-6.24s1.722-6.239,5.009-6.239a6.434,6.434,0,0,1,2.449.5l-.109,2a3.954,3.954,0,0,0-2.087-.659c-1.674,0-3.113,1.251-3.113,4.4s1.439,4.4,3.113,4.4a3.2,3.2,0,0,0,2.087-.626Z"/>
          <path id="パス_347" data-name="パス 347" d="M3684.387,287.875h5.8v1.773h-3.776v3.233h3.571v1.772h-3.571v3.581h3.934v1.772h-5.957Z"/>
          <path id="パス_348" data-name="パス 348" d="M3700.957,290.431l-1.471,1.511-.931-1.495,2.685-2.572h1.675v12.131h-1.958Z"/>
          <path id="パス_349" data-name="パス 349" d="M3707.735,297.956a3.879,3.879,0,0,0,1.817.521c2.134,0,2.5-2.572,2.56-4.049l-.031-.035a2.144,2.144,0,0,1-2.023,1.216c-1.55,0-2.94-1.3-2.94-3.945,0-2.4,1.153-3.962,3.239-3.962,2.813,0,3.588,2.537,3.588,5.665,0,3.58-.9,6.814-4.283,6.814a5,5,0,0,1-2.039-.418Zm2.765-4.05c.932,0,1.422-.9,1.422-2.276,0-1.427-.442-2.294-1.422-2.294-1,0-1.423.867-1.423,2.294C3709.077,292.95,3709.488,293.906,3710.5,293.906Z"/>
          <path id="パス_350" data-name="パス 350" d="M3719.7,290.431l-1.469,1.511-.932-1.495,2.686-2.572h1.675v12.131h-1.96Z"/>
          <path id="パス_351" data-name="パス 351" d="M3729.764,289.648H3725.4v-1.773h6.257v1.947l-3.3,10.184h-2.18Z"/>
        </g>
      </g>
    </g>
  </g>
</svg>
