<svg xmlns="http://www.w3.org/2000/svg" xmlns:xlink="http://www.w3.org/1999/xlink" width="300" height="167" viewBox="0 0 300 167">
  <defs>
    <clipPath id="clip-logo-kamemannen-since1917-white">
      <rect width="300" height="167"/>
    </clipPath>
  </defs>
  <g id="logo-kamemannen-since1917-white" clip-path="url(#clip-logo-kamemannen-since1917-white)">
    <g id="グループ_287" data-name="グループ 287" transform="translate(0 7)">
      <g id="グループ_186" data-name="グループ 186" transform="translate(1 81.256)">
        <path id="パス_282" data-name="パス 282" d="M3004.51,989.952l-8.628-22.072-5.822,0,.015,49.963h4.524v-43.62s5.284,14.835,5.89,16.372c.805,2.048,2.108,3.315,4.051,3.315,1.707,0,3.169-1.267,3.918-3.315.724-1.851,5.94-16.376,5.94-16.376v43.623h4.545V967.878h-5.819Z" transform="translate(-2867.03 -967.87)" fill="#fff"/>
        <g id="グループ_185" data-name="グループ 185">
          <path id="パス_283" data-name="パス 283" d="M2878.792,995.416c-1.2-1.731-1.842-2.429-1.842-3.61s.624-2.118,1.838-3.659c1.585-2.012,15.757-20.276,15.757-20.276h-5.682s-12.065,15.4-13.654,17.452c-1.9,2.454-2.776,3.982-2.776,6.5s1.072,4.046,2.768,6.51c1.835,2.664,14.105,19.513,14.105,19.513h5.895Z" transform="translate(-2866.172 -967.87)" fill="#fff"/>
          <path id="パス_284" data-name="パス 284" d="M2866.126,1017.844h4.571v-49.96h-4.557Z" transform="translate(-2866.126 -967.87)" fill="#fff"/>
        </g>
        <path id="パス_285" data-name="パス 285" d="M2945.262,981.675a6.781,6.781,0,0,0-6.278,3.419,6.856,6.856,0,0,0-6.31-3.419c-4.251,0-8.53,2.54-8.53,8.856l.025,27.417,4.445,0-.016-26.88c0-1.987.535-5.513,4.117-5.516,3.527,0,4.054,3.528,4.054,5.516l.011,26.887h4.425l-.021-26.887c0-1.987.526-5.5,4.052-5.507,3.583,0,4.118,3.519,4.118,5.507l.015,26.889,4.441,0-.024-27.508C2953.787,984.215,2949.563,981.675,2945.262,981.675Z" transform="translate(-2866.549 -967.971)" fill="#fff"/>
        <path id="パス_286" data-name="パス 286" d="M3156.707,981.675c-6.4,0-9.523,3.206-9.523,9.806l.01,26.466,4.475.006V991.043c0-3.312,1.694-5.48,5.065-5.48s4.923,2.168,4.923,5.48v26.9l4.518.006-.037-26.6C3166.139,984.881,3163.106,981.675,3156.707,981.675Z" transform="translate(-2868.176 -967.971)" fill="#fff"/>
        <path id="パス_287" data-name="パス 287" d="M3063.843,981.675c-6.4,0-9.523,3.206-9.523,9.806l.009,26.466,4.476.006V991.043c0-3.312,1.694-5.48,5.066-5.48s4.923,2.168,4.923,5.48v26.9l4.518.006-.037-26.6C3073.275,984.881,3070.242,981.675,3063.843,981.675Z" transform="translate(-2867.499 -967.971)" fill="#fff"/>
        <path id="パス_288" data-name="パス 288" d="M3105.7,1013.41c-3.482-9.508-17.648-45.529-17.648-45.529H3082.3v49.964h4.441V974.2s10.826,29.375,14.419,39.061c1.4,3.772,2.75,5.126,5.145,5.126a3.465,3.465,0,0,0,3.816-3.816v-46.7H3105.7Z" transform="translate(-2867.702 -967.87)" fill="#fff"/>
        <path id="パス_289" data-name="パス 289" d="M2916.012,991.349c0-6.566-3.5-9.674-9.55-9.674s-9.33,3.108-9.33,9.8l0,1.571-.023.031h4.387l0-2.039c0-3.312,1.855-5.48,4.986-5.48s5.1,2.168,5.1,5.48v6l-3.748.016c-7.22,0-10.823,4.325-10.823,10.7,0,7.476,3.278,10.734,9.576,10.734,5.057,0,9.492-2.1,9.492-9.1Zm-14.565,16.875c0-.383,0-.768,0-.838,0-3.689,2.167-6.441,6.073-6.441h4.066v7.319c0,4.437-1.544,6.335-4.992,6.335S2901.447,1012.405,2901.447,1008.224Z" transform="translate(-2866.352 -967.971)" fill="#fff"/>
        <path id="パス_290" data-name="パス 290" d="M3138.195,991.325c0-6.427-3-9.65-9.451-9.65s-9.482,3.206-9.482,9.69l-.014,8.654v8.659c0,7.066,3.968,9.793,9.481,9.793s9.456-2.372,9.456-9.623l.01-1.969h-4.521v2.354c0,3.849-2.246,5.348-4.945,5.348s-5-1.611-5-5.382v-8.263h14.471Zm-14.5,5.726v-6c0-3.534,1.788-5.48,5.047-5.48s4.943,1.946,4.943,5.48v6Z" transform="translate(-2867.972 -967.971)" fill="#fff"/>
        <path id="パス_291" data-name="パス 291" d="M2980.874,991.325c0-6.427-3-9.65-9.449-9.65s-9.482,3.206-9.482,9.69l-.014,8.654v8.659c0,7.066,3.967,9.793,9.481,9.793s9.456-2.372,9.456-9.623l.009-1.969h-4.52v2.354c0,3.849-2.245,5.348-4.945,5.348s-5-1.611-5-5.382l0-8.263h14.47Zm-14.5,5.726v-6c0-3.534,1.788-5.48,5.047-5.48s4.943,1.946,4.943,5.48v6Z" transform="translate(-2866.825 -967.971)" fill="#fff"/>
        <path id="パス_292" data-name="パス 292" d="M3046.265,991.349c0-6.566-3.5-9.674-9.551-9.674s-9.4,3.108-9.4,9.8l0,1.571-.023.031h4.455l0-2.039c0-3.312,1.855-5.48,4.986-5.48s5.1,2.168,5.1,5.48v6l-3.748.016c-7.219,0-10.891,4.325-10.891,10.7,0,7.476,3.278,10.734,9.576,10.734,5.057,0,9.491-2.1,9.491-9.1Zm-14.565,16.875c0-.383,0-.768,0-.838,0-3.689,2.167-6.441,6.073-6.441h4.066v7.319c0,4.437-1.613,6.335-5.061,6.335S3031.7,1012.405,3031.7,1008.224Z" transform="translate(-2867.301 -967.971)" fill="#fff"/>
      </g>
      <g id="グループ_187" data-name="グループ 187" transform="translate(102.207 144.67)">
        <path id="パス_293" data-name="パス 293" d="M2968.356,1042.676a4.631,4.631,0,0,0,2.565.82,1.753,1.753,0,0,0,1.839-1.925c0-.954-.5-1.374-1.578-2.022l-1.127-.686a3.785,3.785,0,0,1-1.977-3.49,3.537,3.537,0,0,1,3.814-3.623,7.251,7.251,0,0,1,2.532.478l-.1,2.04a5.352,5.352,0,0,0-2.271-.572,1.5,1.5,0,0,0-1.681,1.564c0,.992.606,1.373,1.283,1.793l1.3.8a3.652,3.652,0,0,1,2.1,3.586,3.717,3.717,0,0,1-4.057,4,5.119,5.119,0,0,1-2.757-.592Z" transform="translate(-2968.078 -1031.749)" fill="#fff"/>
        <path id="パス_294" data-name="パス 294" d="M2979.952,1031.941h2.219v13.31h-2.219Z" transform="translate(-2968.165 -1031.75)" fill="#fff"/>
        <path id="パス_295" data-name="パス 295" d="M2987.459,1031.941h2.635l4.022,10.45h.035v-10.45h2.011v13.31h-2.653l-4.005-10.373h-.035v10.373h-2.011Z" transform="translate(-2968.219 -1031.75)" fill="#fff"/>
        <path id="パス_296" data-name="パス 296" d="M3008.857,1044.964a6.139,6.139,0,0,1-2.618.477c-3.676,0-5.566-2.956-5.566-6.846s1.89-6.847,5.5-6.847a7.057,7.057,0,0,1,2.687.554l-.121,2.193a4.306,4.306,0,0,0-2.288-.725c-1.839,0-3.416,1.372-3.416,4.824s1.577,4.825,3.416,4.825a3.518,3.518,0,0,0,2.288-.687Z" transform="translate(-2968.316 -1031.749)" fill="#fff"/>
        <path id="パス_297" data-name="パス 297" d="M3012.74,1031.941h6.363v1.946h-4.143v3.547h3.918v1.945h-3.918v3.928h4.317v1.945h-6.537Z" transform="translate(-2968.404 -1031.75)" fill="#fff"/>
        <path id="パス_298" data-name="パス 298" d="M3031.034,1034.745l-1.613,1.659-1.022-1.64,2.947-2.822h1.837v13.31h-2.149Z" transform="translate(-2968.518 -1031.75)" fill="#fff"/>
        <path id="パス_299" data-name="パス 299" d="M3038.54,1043a4.27,4.27,0,0,0,1.994.572c2.341,0,2.739-2.822,2.809-4.443l-.035-.039a2.351,2.351,0,0,1-2.219,1.335c-1.7,0-3.225-1.431-3.225-4.329,0-2.632,1.266-4.348,3.554-4.348,3.086,0,3.936,2.785,3.936,6.216,0,3.929-.989,7.476-4.7,7.476a5.454,5.454,0,0,1-2.236-.459Zm3.035-4.443c1.022,0,1.561-.991,1.561-2.5,0-1.563-.485-2.517-1.561-2.517-1.093,0-1.561.954-1.561,2.517C3040.014,1037.509,3040.464,1038.557,3041.575,1038.557Z" transform="translate(-2968.586 -1031.749)" fill="#fff"/>
        <path id="パス_300" data-name="パス 300" d="M3051.748,1034.745l-1.612,1.659-1.023-1.64,2.948-2.822h1.837v13.31h-2.15Z" transform="translate(-2968.668 -1031.75)" fill="#fff"/>
        <path id="パス_301" data-name="パス 301" d="M3062.858,1033.887h-4.785v-1.946h6.866v2.136l-3.624,11.174h-2.393Z" transform="translate(-2968.734 -1031.75)" fill="#fff"/>
      </g>
    </g>
    <g id="グループ_286" data-name="グループ 286" transform="translate(-5.448 -1.448)">
      <path id="パス_302" data-name="パス 302" d="M3021.446,958.1a35.538,35.538,0,1,1,35.539-35.538A35.577,35.577,0,0,1,3021.446,958.1Zm0-66.312a30.774,30.774,0,1,0,30.775,30.774A30.809,30.809,0,0,0,3021.446,891.79Z" transform="translate(-2866 -886.023)" fill="#fff"/>
      <path id="パス_303" data-name="パス 303" d="M3038.734,930.167a5.466,5.466,0,0,0-.647-.3V912.794a5.447,5.447,0,0,0,.647-.3c2.076-1.151,3.019-3.417,2.109-5.06s-3.333-2.045-5.41-.895a5.547,5.547,0,0,0-.557.36l-12.119-8.182a5.273,5.273,0,0,0,.062-.8c0-2.373-1.523-4.3-3.4-4.3s-3.4,1.924-3.4,4.3a5.54,5.54,0,0,0,.061.808l-12.108,8.177a5.253,5.253,0,0,0-.555-.359c-2.075-1.15-4.5-.75-5.409.895s.033,3.909,2.108,5.06a5.643,5.643,0,0,0,.643.3v17.077a5.461,5.461,0,0,0-.643.3c-2.075,1.151-3.019,3.418-2.108,5.06s3.333,2.045,5.409.895a5.318,5.318,0,0,0,.558-.361l12.106,8.175a5.348,5.348,0,0,0-.062.809c0,2.373,1.524,4.3,3.4,4.3s3.4-1.924,3.4-4.3a5.313,5.313,0,0,0-.062-.805l12.115-8.18a5.487,5.487,0,0,0,.561.362c2.076,1.15,4.5.75,5.41-.895S3040.81,931.318,3038.734,930.167Zm-33.218.891V911.6l0,0v0l13.9-9.387,13.9,9.389v19.461l-13.9,9.388Z" transform="translate(-2863.975 -884.888)" fill="#fff"/>
    </g>
  </g>
</svg>
